<svg xmlns="http://www.w3.org/2000/svg" width="1500" height="1500" fill="none" viewBox="0 0 1500 1500" id="man-with-book"><rect width="1500" height="1500" fill="#fff"></rect><path fill="#FFBE9C" d="M930.029 499.698L915.905 537.983L976.052 574.075L1012.5 503.423L954.875 462.443L930.029 499.698Z"></path><path fill="#FFBE9C" d="M981.421 429.652L951.908 467.1L1009.3 508.524L1036.04 478.283C1037.76 476.333 1037.83 473.426 1036.2 471.396C1034.36 469.094 1030.99 468.725 1028.69 470.573L1018.76 478.543C1017.99 479.159 1016.93 479.266 1016.06 478.814C1014.87 478.203 1014.38 476.77 1014.93 475.559L1022.74 458.544C1025.56 452.406 1023.92 445.143 1018.75 440.801L1002.85 427.449C996.362 422.006 986.661 423.003 981.421 429.652Z"></path><path fill="#FFBE9C" d="M931.549 485.277L928.279 522.046L952.659 490.394L954.434 457.631C954.562 455.271 953.331 453.046 951.264 451.902C947.972 450.08 943.831 451.604 942.506 455.125L932.15 482.64C931.831 483.488 931.629 484.375 931.549 485.277Z"></path><path fill="#5ABCFF" d="M917.284 513.344L993.337 547.741L957.425 645.094C944.806 679.302 904.847 694.44 872.73 677.181L859.076 669.843L917.284 513.344Z"></path><path stroke="#080202" stroke-linecap="round" stroke-width="3" d="M986.141 487.369L1014.77 436.641M852.785 848.565L848.868 871.317M969.324 479.239L1000.07 428.376M952.066 514.872C965.762 509.879 962.811 493.523 957.963 486.985"></path><path fill="#5ABCFF" d="M825.625 473.313C825.625 460.473 838.217 451.417 850.389 455.501V455.501C868.252 461.496 882.685 474.864 890.028 492.216L941.996 615.025C954.644 644.914 936.263 678.81 904.314 684.515V684.515C882.678 688.379 861.024 677.826 850.736 658.405L825.625 611L825.625 473.313Z"></path><rect width="118.551" height="307" x="741.492" y="684.651" fill="#F0CDAC" rx="59.275" transform="rotate(-2.249 741.492 684.651)"></rect><path fill="#F0CDAC" d="M754.923 932.839C752.548 900.436 777.402 872.47 809.86 871.023V871.023C841.672 869.604 868.611 894.244 870.029 926.056L879.914 1147.75L771.031 1152.61L754.923 932.839Z"></path><path fill="#5ABCFF" d="M850.5 709.5L857 602L671 563L664 604.614L677.586 709.5H850.5Z"></path><path fill="#F8E4C6" d="M653.632 762.068C662.75 721.369 701.607 694.504 742.904 700.347L796.998 708L733.561 949.994C725.264 981.646 692.986 1000.68 661.274 992.614V992.614C630.036 984.673 610.784 953.322 617.831 921.871L653.632 762.068Z"></path><path fill="#F8E4C6" d="M621.469 896.847C623.739 865.14 653.39 842.671 684.529 849.06V849.06V849.06C721.053 857.6 745.218 892.358 740.501 929.569L711.512 1158.24L602.55 1161.1L621.469 896.847Z"></path><path fill="#2B0913" d="M712.367 1147.02H601.367L611.367 1222.02H765.367C765.367 1204.22 757.741 1187.26 744.418 1175.45L712.367 1147.02zM882 1147H771L785 1222H935C935 1204.19 927.374 1187.24 914.051 1175.42L882 1147z"></path><path fill="#5ABCFF" d="M847.278 607H674.332C668.681 607 664.153 602.321 664.337 596.673L668.731 462.217C668.888 457.442 672.399 453.445 677.114 452.675L723.296 445.131C723.829 445.044 724.368 445 724.908 445H806.522C827.554 445 847.968 452.112 864.446 465.181C866.666 466.942 867.859 469.696 867.625 472.521L857.244 597.826C856.814 603.011 852.481 607 847.278 607Z"></path><path fill="#FFBE9C" d="M819.5 425.5H806.5V446.5L767 473L728.5 446.5L728 341C728 313.386 750.386 291 778 291H799.5C827.114 291 849.5 313.386 849.5 341V395.5C849.5 412.069 836.069 425.5 819.5 425.5Z"></path><path fill="#fff" d="M843 397H819V398C819 404.627 824.373 410 831 410V410C837.627 410 843 404.627 843 398V397Z"></path><path fill="#2B0913" d="M728.321 408.754C749.132 412.283 788.374 400.331 800.603 352.306C809.303 356.785 825.812 359.552 822.249 334.791C827.326 345.668 840.351 350.013 849.5 351.295V341C849.5 313.386 827.114 291 799.5 291H778C750.386 291 728 313.386 728 341L728.321 408.754Z"></path><path fill="#59BBFF" d="M728 444.5L775.5 470L807 444.5V472V472C783.116 488.42 751.116 487.485 728 470V470V444.5Z"></path><path fill="#FFBE9C" d="M750.335 386.293C745.501 379.131 746.299 369.572 752.253 363.31V363.31C759.258 355.943 770.91 355.65 778.276 362.656L793.298 376.94L765.999 409.5L750.335 386.293Z"></path><path fill="#E9A360" d="M609.65 1117.89L610.176 1114.83 718.948 1124.53 718.272 1127.6 609.65 1117.89zM778.086 1130.5L778 1127.5H879.992V1130.5H778.086z"></path><path fill="#5ABCFF" d="M640.081 484.461C645.961 460.771 670.503 446.853 693.852 453.967V453.967C715.26 460.488 727.974 482.459 722.962 504.27L690.401 645.959C684.905 669.874 660.864 684.633 637.051 678.711V678.711C613.542 672.864 599.22 649.073 605.056 625.562L640.081 484.461Z"></path><path stroke="#080202" stroke-linecap="round" stroke-width="3" d="M765 376L774.5 387"></path><path fill="#080202" d="M794.819 417.244C794.126 416.791 793.196 416.987 792.744 417.681C792.291 418.374 792.487 419.304 793.181 419.756L794.819 417.244ZM804.681 427.256L805.937 428.076L807.576 425.563L806.319 424.744L804.681 427.256ZM793.181 419.756L804.681 427.256L806.319 424.744L794.819 417.244L793.181 419.756Z"></path><path stroke="#080202" stroke-linecap="round" stroke-width="3" d="M692.5 646L711.501 529.5M850.499 676.5L865 525"></path><path stroke="#080202" stroke-linecap="round" stroke-width="5" d="M736.002 965L781.399 761"></path><path fill="#fff" d="M761.718 1201.02H608.566L611.366 1222.02H765.366C765.366 1214.79 764.107 1207.69 761.718 1201.02zM931.349 1201H781.078L784.998 1222H934.998C934.998 1214.76 933.739 1207.67 931.349 1201z"></path><path fill="#F1CBCD" d="M654.883 816L656.626 755H693L687.771 790.385C685.597 805.1 672.968 816 658.094 816H654.883Z"></path><circle cx="836.5" cy="367.5" r="3.5" fill="#2B0913"></circle><path fill="#FFBE9C" d="M858.48 382.129L847 372.5V391L857.556 387.254C859.743 386.478 860.258 383.62 858.48 382.129Z"></path><path fill="#080202" d="M675 697H851L854 715H675V697Z"></path><rect width="7" height="21" x="720" y="697" fill="#F8E4C6"></rect><path fill="#D5000B" d="M561 665H783V820C783 836.569 769.569 850 753 850H591C574.431 850 561 836.569 561 820V665Z"></path><path fill="#fff" d="M751 665H778V814.5C778 821.956 771.956 828 764.5 828V828C757.044 828 751 821.956 751 814.5V665Z"></path><rect width="7" height="21" x="683" y="697" fill="#F8E4C6"></rect><path fill="#FFBE9C" d="M691.743 885.295L695.98 845.502L626.208 833.331L619.641 873.159C619.217 875.726 620.704 878.226 623.163 879.079C625.952 880.046 628.997 878.57 629.965 875.781L634.138 863.752C634.461 862.821 635.302 862.168 636.283 862.085C637.611 861.973 638.791 862.924 638.965 864.245L641.399 882.806C642.277 889.503 647.521 894.786 654.21 895.714L666.494 897.418L674.767 898.565C683.157 899.729 690.846 893.719 691.743 885.295Z"></path><path fill="#FFBE9C" d="M698.045 798.662L689.654 758.727L619.524 760.134L626.215 839.352L695.98 845.502L698.045 798.662Z"></path><path fill="#FFBE9C" d="M697.107 790.996L688.551 775.378L685.897 815.243L702.645 843.458C703.851 845.489 706.112 846.653 708.467 846.455C712.215 846.138 714.809 842.568 713.952 838.905L711.606 828.882C708.511 815.655 703.633 802.91 697.107 790.996Z"></path><path stroke="#080202" stroke-linecap="round" stroke-width="3" d="M681.527 840.702L674.367 898.509M696.691 812.325L696.634 835.411M663.168 837.234L657.629 896.411M639.457 835.725L636.333 864.088"></path><rect width="7" height="21" x="828" y="697" fill="#F0CDAC"></rect><path fill="#fff" d="M721.708 1155.31L704.081 1164.84C703.353 1165.24 702.442 1164.97 702.048 1164.24 701.654 1163.51 701.925 1162.6 702.654 1162.2L719.319 1153.19 721.708 1155.31zM735.187 1167.26L718.654 1176.2C717.925 1176.6 717.654 1177.51 718.048 1178.24 718.442 1178.97 719.353 1179.24 720.081 1178.84L737.576 1169.38 735.187 1167.26zM893.476 1157.18L881.787 1163.5C881.058 1163.89 880.787 1164.8 881.181 1165.53 881.575 1166.26 882.485 1166.53 883.214 1166.14L895.864 1159.3 893.476 1157.18zM909.343 1171.25L897.787 1177.5C897.058 1177.89 896.787 1178.8 897.181 1179.53 897.575 1180.26 898.485 1180.53 899.214 1180.14L911.732 1173.37 909.343 1171.25z"></path><path fill="#5ABCFF" d="M699.676 764.411L614.977 771.565L604.583 648.503C602.608 625.114 619.967 604.552 643.356 602.577V602.577C666.745 600.601 687.306 617.96 689.282 641.349L699.676 764.411Z"></path><path stroke="#080202" stroke-linecap="round" stroke-width="3" d="M690.004 653L698.503 763.5M1016.02 479.023L1003.21 494.904"></path></svg>